<svg id="Programer" xmlns="http://www.w3.org/2000/svg" width="879.354" height="524.292" viewBox="0 0 879.354 524.292">
  <path id="Path_1" data-name="Path 1" d="M891.308,587.513q-1.47,3.548-2.93,7-2.28,5.364-4.5,10.521c-.659,1.523-1.318,3.018-1.959,4.513-7.263,16.623-14.044,31.326-19.8,43.418-10.645,22.316-31.3,36.353-53.887,36.615l-128.068,1.561h-1.351l-10.978.132-9.391.114-28.8.35h-1.165l-14.66.18h-.448l-90.361,1.1-80.658.946-9.382.114-58.27.71h-.068l-37.791.454h-.405l-119.5,1.448-35.748.435a66.4,66.4,0,0,1-9.112-.511h0c-1.03-.133-2.061-.284-3.082-.464-16.672-2.883-31.959-12.079-43.314-26.056C110.3,651.139,99.111,629.028,91.6,605.035q-1.63-5.194-3.04-10.521c-26.019-98.539,5.7-225.669,62.788-310.745q3.589-5.336,7.3-10.407l.059-.076c17.557-24.145,37.242-44.316,58.211-58.66,37.158-25.46,78.327-32.632,118.821-11.259,34.261,18.09,66.251,26.6,97.261,28.9,3.133.227,6.266.4,9.382.5,71.132,2.507,137.8-26.208,216.081-44.742,3.116-.738,6.241-1.466,9.391-2.157,55.847-12.451,117.8-19.017,191.473-5.213a145.537,145.537,0,0,1,22.6,6.055q4.873,1.76,9.391,3.785c35.165,16.027,54.343,45.641,62.493,82.748q1.157,5.166,2,10.511C970.251,373.017,927.934,499.627,891.308,587.513Z" transform="translate(-79.351 -172.945)" fill="#f2f2f2"/>
  <path id="Path_2" data-name="Path 2" d="M499.716,594.666a100.022,100.022,0,0,1-1.575,10.506h78.927V594.666ZM433.8,654.007l9.358-.085V627.969c-3.209-.161-6.334-.321-9.358-.491Zm-196.2-59.341v10.506h167.2V594.666ZM953.321,273.9H890.988V191.238q-4.507-2.05-9.367-3.779V273.9H668.056V186.58c-3.142.69-6.259,1.417-9.367,2.154V273.9H443.161V233.413c-3.108-.1-6.233-.274-9.358-.5V273.9H218.275V215.32c-20.915,14.323-40.55,34.465-58.062,58.576h-.059v.076q-3.706,5.1-7.278,10.393h7.278v310.3H90.24q1.4,5.319,3.032,10.506h66.873v88.45a66.616,66.616,0,0,0,10.276,2.636c1.019.18,2.047.331,3.075.463h0a66.161,66.161,0,0,0,9.089.51l35.656-.435V605.153H433.8V694.16l9.358-.113V605.172H658.689v86.315l9.367-.113v-86.2H881.579v4.507c.64-1.493,1.3-2.985,1.954-4.507q2.215-5.149,4.49-10.506,1.457-3.439,2.923-6.991V284.4h64.371Q954.467,279.026,953.321,273.9ZM218.275,594.666v-310.3H433.8v310.3Zm224.9,0v-310.3H658.689v310.3Zm438.418,0H668.056v-310.3H881.579Z" transform="translate(-79.351 -172.945)" opacity="0.1"/>
  <path id="Path_3" data-name="Path 3" d="M863.09,533.65v13l-151.92,1.4-1.62.03-57.74.53-1.38.02-17.55.15h-.52l-106.98.99L349.77,551.4h-.15l-44.65.42-.48.01-198.4,1.82v-15l46.65-28,93.6-.78,2-.01.66-.01,2-.03,44.94-.37,2.01-.01.64-.01,2-.01L315,509.3l.38-.01,35.55-.3h.29l277.4-2.34,6.79-.05h.68l5.18-.05,37.65-.31,2-.03,1.85-.02h.96l11.71-.09,2.32-.03,3.11-.02,9.75-.09,15.47-.13,2-.02,3.48-.02h.65l74.71-.64Z" transform="translate(-0.011 -29.884)" fill="#65617d"/>
  <path id="Path_4" data-name="Path 4" d="M863.09,533.65v13l-151.92,1.4-1.62.03-57.74.53-1.38.02-17.55.15h-.52l-106.98.99L349.77,551.4h-.15l-44.65.42-.48.01-198.4,1.82v-15l46.65-28,93.6-.78,2-.01.66-.01,2-.03,44.94-.37,2.01-.01.64-.01,2-.01L315,509.3l.38-.01,35.55-.3h.29l277.4-2.34,6.79-.05h.68l5.18-.05,37.65-.31,2-.03,1.85-.02h.96l11.71-.09,2.32-.03,3.11-.02,9.75-.09,15.47-.13,2-.02,3.48-.02h.65l74.71-.64Z" transform="translate(-0.011 -29.884)" opacity="0.2"/>
  <path id="Path_5" data-name="Path 5" d="M375.44,656.57v24.49a6.13,6.13,0,0,1-3.5,5.54,6,6,0,0,1-2.5.6l-34.9.74a6,6,0,0,1-2.7-.57,6.12,6.12,0,0,1-3.57-5.57V656.57Z" transform="translate(-119.895 -202.794)" fill="#3f3d56"/>
  <path id="Path_6" data-name="Path 6" d="M375.44,656.57v24.49a6.13,6.13,0,0,1-3.5,5.54,6,6,0,0,1-2.5.6l-34.9.74a6,6,0,0,1-2.7-.57,6.12,6.12,0,0,1-3.57-5.57V656.57Z" transform="translate(-119.895 -202.794)" opacity="0.1"/>
  <path id="Path_7" data-name="Path 7" d="M377.44,656.57v24.49a6.13,6.13,0,0,1-3.5,5.54,6,6,0,0,1-2.5.6l-34.9.74a6,6,0,0,1-2.7-.57,6.12,6.12,0,0,1-3.57-5.57V656.57Z" transform="translate(-120.221 -202.794)" fill="#3f3d56"/>
  <rect id="Rectangle_1" data-name="Rectangle 1" width="47.17" height="31.5" transform="translate(570.001 453.766)" fill="#3f3d56"/>
  <rect id="Rectangle_2" data-name="Rectangle 2" width="47.17" height="31.5" transform="translate(570.001 453.766)" opacity="0.1"/>
  <rect id="Rectangle_3" data-name="Rectangle 3" width="47.17" height="31.5" transform="translate(568.327 453.766)" fill="#3f3d56"/>
  <path id="Path_8" data-name="Path 8" d="M298.09,483.65v4.97l-47.17,1.26v-6.23Z" transform="translate(-40.879 -29.884)" opacity="0.1"/>
  <path id="Path_9" data-name="Path 9" d="M460.69,485.27v168.2a4,4,0,0,1-3.85,3.95l-191.65,5.1h-.05a4,4,0,0,1-3.95-3.95V485.27a4,4,0,0,1,3.95-3.95h191.6a4,4,0,0,1,3.95,3.95Z" transform="translate(-114.329 -202.794)" fill="#65617d"/>
  <path id="Path_10" data-name="Path 10" d="M265.19,481.32v181.2h-.05a4,4,0,0,1-3.95-3.95V485.27a4,4,0,0,1,3.95-3.95Z" transform="translate(-79.351 -202.794)" opacity="0.1"/>
  <path id="Path_11" data-name="Path 11" d="M194.59,319.15h177.5V467.4l-177.5,4Z" transform="translate(-36.486 -29.884)" fill="#6c63ff"/>
  <path id="Path_12" data-name="Path 12" d="M726.09,483.65v6.41l-47.17-1.26v-5.15Z" transform="translate(-110.593 -29.884)" opacity="0.1"/>
  <path id="Path_13" data-name="Path 13" d="M867.69,485.27v173.3a4,4,0,0,1-4,3.95h0L672,657.42a4,4,0,0,1-3.85-3.95V485.27a4,4,0,0,1,3.95-3.95H863.7a4,4,0,0,1,3.99,3.95Z" transform="translate(-192.616 -202.794)" fill="#65617d"/>
  <path id="Path_14" data-name="Path 14" d="M867.69,485.27v173.3a4,4,0,0,1-4,3.95h0V481.32h0a4,4,0,0,1,4,3.95Z" transform="translate(-201.789 -202.794)" opacity="0.1"/>
  <path id="Path_15" data-name="Path 15" d="M775.59,319.15H598.09V467.4l177.5,4Z" transform="translate(-112.126 -29.884)" fill="#6c63ff"/>
  <path id="Path_16" data-name="Path 16" d="M663.19,485.27v168.2a4,4,0,0,1-3.85,3.95l-191.65,5.1h0a4,4,0,0,1-4-3.95V485.27a4,4,0,0,1,3.95-3.95h191.6A4,4,0,0,1,663.19,485.27Z" transform="translate(-153.281 -202.794)" fill="#65617d"/>
  <path id="Path_17" data-name="Path 17" d="M397.09,319.15h177.5V467.4l-177.5,4Z" transform="translate(-74.447 -29.884)" fill="#6c63ff"/>
  <path id="Path_18" data-name="Path 18" d="M863.09,533.65v13l-151.92,1.4-1.62.03-57.74.53-1.38.02-17.55.15h-.52l-106.98.99L349.77,551.4h-.15l-44.65.42-.48.01-198.4,1.82v-15l202.51-1.33h.48l40.99-.28h.19l283.08-1.87h.29l.17-.01h.47l4.79-.03h1.46l74.49-.5,4.4-.02.98-.01Z" transform="translate(-0.011 -29.884)" opacity="0.1"/>
  <circle id="Ellipse_1" data-name="Ellipse 1" cx="51.33" cy="51.33" r="51.33" transform="translate(360.718 230.469)" fill="#fbbebe"/>
  <path id="Path_19" data-name="Path 19" d="M617.94,550.07s-99.5,12-90,0c3.44-4.34,4.39-17.2,4.2-31.85-.06-4.45-.22-9.06-.45-13.65-1.1-22-3.75-43.5-3.75-43.5s87-41,77-8.5c-4,13.13-2.69,31.57.35,48.88.89,5.05,1.92,10,3,14.7a344.66,344.66,0,0,0,9.65,33.92Z" transform="translate(-155.65 -191.115)" fill="#fbbebe"/>
  <path id="Path_20" data-name="Path 20" d="M585.47,546c11.51-2.13,23.7-6,34.53-1.54,2.85,1.17,5.47,2.88,8.39,3.86s6.12,1.22,9.16,1.91c10.68,2.42,19.34,10.55,24.9,20s8.44,20.14,11.26,30.72l6.9,25.83c6,22.45,12,45.09,13.39,68.3a2437.506,2437.506,0,0,1-250.84,1.43c5.44-10.34,11-21.31,10.54-33s-7.19-23.22-4.76-34.74c1.55-7.34,6.57-13.39,9.64-20.22,8.75-19.52,1.94-45.79,17.32-60.65,6.92-6.68,17-9.21,26.63-8.89,12.28.41,24.85,4.24,37,6.11C555.09,547.48,569.79,548.88,585.47,546Z" transform="translate(-153.878 -202.794)" fill="#ff6584"/>
  <path id="Path_21" data-name="Path 21" d="M716.37,657.17l-.1,1.43v.1l-.17,2.3-1.33,18.51-1.61,22.3-.46,6.28-1,13.44v.17l-107,1-175.59,1.9v.84h-.14v-1.12l.45-14.36.86-28.06.74-23.79.07-2.37a10.53,10.53,0,0,1,11.42-10.17c4.72.4,10.85.89,18.18,1.41l3,.22c42.33,2.94,120.56,6.74,199.5,2,1.66-.09,3.33-.19,5-.31,12.24-.77,24.47-1.76,36.58-3a10.53,10.53,0,0,1,11.6,11.23Z" transform="translate(-154.447 -202.794)" opacity="0.1"/>
  <path id="Path_22" data-name="Path 22" d="M429.08,725.44v-.84l175.62-1.91,107-1h.3v-.17l1-13.44.43-6,1.64-22.61,1.29-17.9v-.44a10.617,10.617,0,0,0-.11-2.47.3.3,0,0,0,0-.1,10.391,10.391,0,0,0-2-4.64,10.54,10.54,0,0,0-9.42-4c-12.11,1.24-24.34,2.23-36.58,3-1.67.12-3.34.22-5,.31-78.94,4.69-157.17.89-199.5-2l-3-.22c-7.33-.52-13.46-1-18.18-1.41a10.54,10.54,0,0,0-11.24,8.53,11,11,0,0,0-.18,1.64l-.68,22.16L429.54,710l-.44,14.36v1.12Z" transform="translate(-154.459 -202.794)" fill="#3f3d56"/>
  <path id="Path_23" data-name="Path 23" d="M716.67,664.18l-1.23,15.33-1.83,22.85-.46,5.72-1,12.81-.06.64v.17h0l-.15,1.48.11-1.48h-.29l-107,1-175.65,1.9v-.28l.49-14.36,1-28.06.64-18.65A6.36,6.36,0,0,1,434.3,658a6.25,6.25,0,0,1,3.78-.9c2.1.17,4.68.37,7.69.59,4.89.36,10.92.78,17.94,1.22,13,.82,29.31,1.7,48,2.42,52,2,122.2,2.67,188.88-3.17,3-.26,6.1-.55,9.13-.84a6.26,6.26,0,0,1,3.48.66,5.159,5.159,0,0,1,.86.54,6.14,6.14,0,0,1,2,2.46,3.564,3.564,0,0,1,.25.61A6.279,6.279,0,0,1,716.67,664.18Z" transform="translate(-154.492 -202.794)" opacity="0.1"/>
  <path id="Path_24" data-name="Path 24" d="M377.44,677.87v3.19a6.13,6.13,0,0,1-3.5,5.54l-40.1.77a6.12,6.12,0,0,1-3.57-5.57v-3Z" transform="translate(-120.221 -202.794)" opacity="0.1"/>
  <path id="Path_25" data-name="Path 25" d="M298.59,515.57l-52.25,1V507.9l52.25-1Z" transform="translate(-40.34 -29.884)" fill="#3f3d56"/>
  <path id="Path_26" data-name="Path 26" d="M298.59,515.57l-52.25,1V507.9l52.25-1Z" transform="translate(-40.34 -29.884)" opacity="0.1"/>
  <path id="Path_27" data-name="Path 27" d="M300.59,515.57l-52.25,1V507.9l52.25-1Z" transform="translate(-40.667 -29.884)" fill="#3f3d56"/>
  <path id="Path_28" data-name="Path 28" d="M758.56,679.87v3.19a6.13,6.13,0,0,0,3.5,5.54l40.1.77a6.12,6.12,0,0,0,3.57-5.57v-3Z" transform="translate(-189.982 -202.794)" opacity="0.1"/>
  <path id="Path_29" data-name="Path 29" d="M678.72,517.57l52.25,1V509.9l-52.25-1Z" transform="translate(-111.128 -29.884)" opacity="0.1"/>
  <path id="Path_30" data-name="Path 30" d="M676.72,517.57l52.25,1V509.9l-52.25-1Z" transform="translate(-110.801 -29.884)" fill="#3f3d56"/>
  <path id="Path_31" data-name="Path 31" d="M534.13,486.79c.08,7-3.16,13.6-5.91,20.07a163.491,163.491,0,0,0-12.66,74.71c.73,11,2.58,22,.73,32.9s-8.43,21.77-19,24.9c17.53,10.45,41.26,9.35,57.76-2.66,8.79-6.4,15.34-15.33,21.75-24.11a97.86,97.86,0,0,1-13.31,44.75A103.43,103.43,0,0,0,637,616.53c4.31-5.81,8.06-12.19,9.72-19.23,3.09-13-1.22-26.51-4.51-39.5a266.055,266.055,0,0,1-6.17-33c-.43-3.56-.78-7.22.1-10.7,1-4.07,3.67-7.51,5.64-11.22,5.6-10.54,5.73-23.3,2.86-34.88s-8.49-22.26-14.06-32.81c-4.46-8.46-9.3-17.31-17.46-22.28-5.1-3.1-11-4.39-16.88-5.64l-25.37-5.43c-5.55-1.19-11.26-2.38-16.87-1.51-9.47,1.48-16.14,8.32-22,15.34-4.59,5.46-15.81,15.71-16.6,22.86-.72,6.59,5.1,17.63,6.09,24.58,1.3,9,2.22,6,7.3,11.52C532,478.05,534.07,482,534.13,486.79Z" transform="translate(-155.322 -202.794)" fill="#3f3d56"/>
  <path id="Path_32" data-name="Path 32" d="M379.6,506.5H280a.5.5,0,0,1,0-1h99.6a.5.5,0,0,1,0,1Z" transform="translate(-113.803 -190.891)" fill="#f2f2f2"/>
  <path id="Path_33" data-name="Path 33" d="M379.6,515.5H280a.5.5,0,0,1,0-1h99.6a.5.5,0,0,1,0,1Z" transform="translate(-113.803 -191.376)" fill="#f2f2f2"/>
  <path id="Path_34" data-name="Path 34" d="M379.6,524.5H280a.5.5,0,0,1,0-1h99.6a.5.5,0,0,1,0,1Z" transform="translate(-113.803 -191.862)" fill="#f2f2f2"/>
</svg>
